<svg id="Layer_1" data-name="Layer 1" xmlns="http://www.w3.org/2000/svg" viewBox="0 0 1080 1080"><defs><style>.cls-1{font-size:163.54px;fill:#734e21;font-family:NewOrder-Medium, New Order;font-weight:500;}.cls-2{letter-spacing:0.08em;}.cls-3{fill:#5b7303;}.cls-4{font-size:47.7px;font-family:NewOrder-Light, New Order;font-weight:300;}.cls-5{letter-spacing:-0.03em;}.cls-6{letter-spacing:-0.02em;}.cls-7{letter-spacing:-0.02em;}.cls-8{letter-spacing:-0.01em;}.cls-9{letter-spacing:-0.03em;}.cls-10{letter-spacing:-0.07em;}.cls-11{letter-spacing:-0.03em;}.cls-12{letter-spacing:0em;}</style></defs><text class="cls-1" transform="translate(305.08 566.62)">C <tspan class="cls-2" x="134.59" y="0"> </tspan><tspan x="188.56" y="0">nbu</tspan></text><path class="cls-3" d="M442,548.6c-9.59,1.08-17.07,5.56-23.16,13.14,11.57.29,20.65-4.1,27.79-13,0,4.34,0,8.28,0,12.23,0,3.2-.12,6.4-.13,9.6,0,.32.35.65.55,1a7.58,7.58,0,0,0,.45-1,2.69,2.69,0,0,0,0-.8q-.16-9.72-.34-19.46c0-.46,0-.93,0-1.81,7.29,9,16.31,13.46,27.94,13.19-6.14-7.72-13.7-12.08-23.25-13.16a73,73,0,0,0,44.72-22.52,73.42,73.42,0,0,0-41.47,15.35,93.65,93.65,0,0,0,24.49-47.28,90.39,90.39,0,0,0-16.43,17.3,100.15,100.15,0,0,0-11.58,21A106.59,106.59,0,0,0,447,475.93a106.64,106.64,0,0,0-4.6,56.47,99.17,99.17,0,0,0-11.57-21,89,89,0,0,0-16.42-17.28,93.47,93.47,0,0,0,24.68,47.48A73.11,73.11,0,0,0,397.4,526,73.42,73.42,0,0,0,442,548.6Z"/><text class="cls-4" transform="translate(256.62 647.54)"><tspan class="cls-5">C</tspan><tspan x="25.52" y="0">annabis </tspan><tspan class="cls-6" x="204.44" y="0">R</tspan><tspan x="228.81" y="0">e</tspan><tspan class="cls-7" x="256.76" y="0">c</tspan><tspan class="cls-8" x="276.18" y="0">ov</tspan><tspan x="326.83" y="0">er</tspan><tspan class="cls-7" x="368" y="0">y</tspan><tspan class="cls-9" x="390.27" y="0"> </tspan><tspan class="cls-10" x="401.2" y="0">T</tspan><tspan class="cls-11" x="420.28" y="0">r</tspan><tspan class="cls-12" x="432.06" y="0">acking</tspan></text></svg>