<svg id="Layer_1" data-name="Layer 1" xmlns="http://www.w3.org/2000/svg" viewBox="0 0 416 150"><defs><style>.cls-1{font-size:143.91px;fill:#734e21;font-family:NewOrder-Medium, New Order;font-weight:500;}.cls-2{letter-spacing:0.08em;}.cls-3{letter-spacing:0em;}.cls-4{fill:#5b7303;}</style></defs><text class="cls-1" transform="translate(2.56 126.98)">C <tspan class="cls-2" x="118.43" y="0"> </tspan><tspan class="cls-3" x="165.92" y="0">nbu</tspan></text><path class="cls-4" d="M123.07,111.13c-8.43,1-15,4.89-20.37,11.57,10.17.25,18.16-3.61,24.45-11.41,0,3.82,0,7.29,0,10.76,0,2.82-.1,5.63-.11,8.45,0,.28.31.57.48.85a4.7,4.7,0,0,0,.4-.85,2.36,2.36,0,0,0,0-.7l-.3-17.12v-1.6c6.42,8,14.36,11.85,24.59,11.61-5.4-6.79-12.06-10.62-20.46-11.57a64.27,64.27,0,0,0,39.35-19.83,64.67,64.67,0,0,0-36.49,13.52A82.44,82.44,0,0,0,156.14,63.2a79.91,79.91,0,0,0-14.46,15.22,88.09,88.09,0,0,0-10.19,18.47,93.64,93.64,0,0,0-4-49.7,93.78,93.78,0,0,0-4,49.68,87.21,87.21,0,0,0-10.18-18.45A78.32,78.32,0,0,0,98.79,63.21,82.18,82.18,0,0,0,120.51,105,64.3,64.3,0,0,0,83.8,91.28,64.67,64.67,0,0,0,123.07,111.13Z"/></svg>