<svg id="Layer_1" data-name="Layer 1" xmlns="http://www.w3.org/2000/svg" viewBox="0 0 563.33 89.9"><defs><style>.cls-1{font-size:103.42px;fill:#734e21;}.cls-1,.cls-4{font-family:NewOrder-Medium, New Order;font-weight:500;}.cls-2{letter-spacing:0.08em;}.cls-3,.cls-4{fill:#5b7303;}.cls-4{font-size:30.36px;}.cls-5{letter-spacing:-0.02em;}.cls-6{letter-spacing:-0.03em;}.cls-7{letter-spacing:-0.01em;}.cls-8{letter-spacing:-0.02em;}.cls-9{letter-spacing:-0.02em;}</style></defs><text class="cls-1" transform="translate(-3 81.52)">C <tspan class="cls-2" x="85.12" y="0"> </tspan><tspan x="119.25" y="0">nbu</tspan></text><path class="cls-3" d="M83.61,70.13A21.11,21.11,0,0,0,69,78.44a20.71,20.71,0,0,0,17.58-8.2c0,2.75,0,5.24,0,7.74,0,2-.07,4-.08,6.07,0,.2.23.41.35.61a4.27,4.27,0,0,0,.29-.61,2.11,2.11,0,0,0,0-.5l-.21-12.3c0-.3,0-.59,0-1.15,4.61,5.71,10.31,8.51,17.67,8.34a21.08,21.08,0,0,0-14.71-8.32,46.21,46.21,0,0,0,28.28-14.25,46.62,46.62,0,0,0-26.23,9.71,59.19,59.19,0,0,0,15.49-29.9A57.61,57.61,0,0,0,97,46.62a63.49,63.49,0,0,0-7.32,13.27,67.31,67.31,0,0,0-2.9-35.71,67.37,67.37,0,0,0-2.9,35.7,63.17,63.17,0,0,0-7.32-13.26A56,56,0,0,0,66.15,35.69a59.2,59.2,0,0,0,15.61,30,46.18,46.18,0,0,0-26.37-9.84A46.46,46.46,0,0,0,83.61,70.13Z"/><text class="cls-4" transform="translate(297.81 81.48)"><tspan class="cls-5">C</tspan><tspan x="16.67" y="0">annabis </tspan><tspan class="cls-6" x="133.32" y="0">R</tspan><tspan x="150.13" y="0">e</tspan><tspan class="cls-7" x="168.1" y="0">c</tspan><tspan class="cls-8" x="180.73" y="0">ov</tspan><tspan x="213.91" y="0">er</tspan><tspan class="cls-9" x="241.02" y="0">y</tspan></text></svg>